<svg width="524" height="512" viewBox="0 0 524 512" fill="none" xmlns="http://www.w3.org/2000/svg">
<rect width="524" height="512" fill="#0D1117"/>
<path d="M178.238 85.2213C239.989 82.2092 281.201 109.863 319.865 173.337C367.441 251.444 342.679 330.37 291.73 377C323.946 311.031 317.196 284.464 246.128 227.754C175.06 171.044 170.305 123.484 178.238 85.2213Z" fill="url(#paint0_linear_1007_203)"/>
<path fill-rule="evenodd" clip-rule="evenodd" d="M387.266 234.179C387.266 297.903 348.105 352.712 291.958 377C327.938 344.529 371.475 259.996 321.89 180.237C278.044 109.709 213.246 91.9636 178.484 85.289C193.792 80.5544 210.096 78 227.012 78C315.517 78 387.266 147.924 387.266 234.179Z" fill="url(#paint1_linear_1007_203)"/>
<path d="M279.029 380.843C236.87 388.033 186.137 362.088 137.535 292.708C84.9939 217.703 114.743 135.641 165.643 89C133.459 154.984 140.201 181.557 211.203 238.279C282.205 295.002 286.956 342.573 279.029 380.843Z" fill="url(#paint2_linear_1007_203)"/>
<path fill-rule="evenodd" clip-rule="evenodd" d="M70 231.821C70 168.097 109.16 113.286 165.307 89C129.328 121.471 85.7909 206.003 135.376 285.763C179.222 356.292 244.019 374.036 278.781 380.712C263.473 385.447 247.169 388 230.253 388C141.748 388 70 318.077 70 231.821Z" fill="url(#paint3_linear_1007_203)"/>
<path d="M292.848 393.348V294.812H322.047V393.348C322.047 402.853 319.964 411.023 315.797 417.859C311.63 424.63 305.934 429.839 298.707 433.484C291.546 437.13 283.473 438.953 274.488 438.953C265.178 438.953 256.943 437.391 249.781 434.266C242.62 431.141 236.988 426.355 232.887 419.91C228.785 413.4 226.734 405.164 226.734 395.203H256.129C256.129 400.411 256.845 404.546 258.277 407.605C259.775 410.665 261.891 412.846 264.625 414.148C267.359 415.451 270.647 416.102 274.488 416.102C278.199 416.102 281.422 415.223 284.156 413.465C286.891 411.707 289.007 409.135 290.504 405.75C292.066 402.365 292.848 398.23 292.848 393.348ZM417.07 399.793C417.07 397.254 416.68 394.975 415.898 392.957C415.182 390.874 413.815 388.986 411.797 387.293C409.779 385.535 406.947 383.81 403.301 382.117C399.655 380.424 394.935 378.667 389.141 376.844C382.695 374.76 376.576 372.417 370.781 369.812C365.052 367.208 359.974 364.181 355.547 360.73C351.185 357.215 347.734 353.146 345.195 348.523C342.721 343.901 341.484 338.53 341.484 332.41C341.484 326.486 342.786 321.115 345.391 316.297C347.995 311.414 351.641 307.247 356.328 303.797C361.016 300.281 366.549 297.579 372.93 295.691C379.375 293.803 386.439 292.859 394.121 292.859C404.603 292.859 413.75 294.747 421.562 298.523C429.375 302.299 435.43 307.475 439.727 314.051C444.089 320.626 446.27 328.146 446.27 336.609H417.168C417.168 332.443 416.289 328.797 414.531 325.672C412.839 322.482 410.234 319.975 406.719 318.152C403.268 316.329 398.906 315.418 393.633 315.418C388.555 315.418 384.323 316.199 380.938 317.762C377.552 319.259 375.013 321.31 373.32 323.914C371.628 326.453 370.781 329.318 370.781 332.508C370.781 334.917 371.367 337.098 372.539 339.051C373.776 341.004 375.599 342.827 378.008 344.52C380.417 346.212 383.379 347.807 386.895 349.305C390.41 350.802 394.479 352.267 399.102 353.699C406.849 356.043 413.652 358.68 419.512 361.609C425.436 364.539 430.384 367.827 434.355 371.473C438.327 375.118 441.322 379.253 443.34 383.875C445.358 388.497 446.367 393.738 446.367 399.598C446.367 405.783 445.163 411.316 442.754 416.199C440.345 421.082 436.862 425.216 432.305 428.602C427.747 431.987 422.311 434.559 415.996 436.316C409.681 438.074 402.617 438.953 394.805 438.953C387.773 438.953 380.84 438.042 374.004 436.219C367.168 434.331 360.951 431.499 355.352 427.723C349.818 423.947 345.391 419.129 342.07 413.27C338.75 407.41 337.09 400.477 337.09 392.469H366.484C366.484 396.896 367.168 400.639 368.535 403.699C369.902 406.759 371.823 409.233 374.297 411.121C376.836 413.009 379.831 414.376 383.281 415.223C386.797 416.069 390.638 416.492 394.805 416.492C399.883 416.492 404.049 415.776 407.305 414.344C410.625 412.911 413.066 410.926 414.629 408.387C416.257 405.848 417.07 402.983 417.07 399.793Z" fill="white"/>
<defs>
<linearGradient id="paint0_linear_1007_203" x1="178.345" y1="85.2213" x2="288.72" y2="378.823" gradientUnits="userSpaceOnUse">
<stop stop-color="#3A447C"/>
<stop offset="0.523958" stop-color="#252945"/>
<stop offset="1" stop-color="#121114"/>
</linearGradient>
<linearGradient id="paint1_linear_1007_203" x1="178.509" y1="86.0172" x2="290.161" y2="378.982" gradientUnits="userSpaceOnUse">
<stop stop-color="#7387F6"/>
<stop offset="0.473958" stop-color="#4B548D"/>
<stop offset="1" stop-color="#1F1D23"/>
</linearGradient>
<linearGradient id="paint2_linear_1007_203" x1="278.923" y1="380.843" x2="168.428" y2="87.2609" gradientUnits="userSpaceOnUse">
<stop stop-color="#53347A"/>
<stop offset="0.523958" stop-color="#37244D"/>
<stop offset="1" stop-color="#16141B"/>
</linearGradient>
<linearGradient id="paint3_linear_1007_203" x1="278.756" y1="379.982" x2="167.104" y2="87.0185" gradientUnits="userSpaceOnUse">
<stop stop-color="#A868F5"/>
<stop offset="0.473958" stop-color="#684692"/>
<stop offset="1" stop-color="#25222A"/>
</linearGradient>
</defs>
</svg>
